<svg version="1" xmlns="http://www.w3.org/2000/svg" width="933.333" height="933.333" viewBox="0 0 700.000000 700.000000"><path d="M322.9 134.4c-.2.2-6.5.6-13.9 1-13.6.7-19 1.1-29 2.1-10.2 1.1-14.5 1.6-17 2-1.4.3-4.3.7-6.5 1.1-10.5 1.5-25.3 4.3-30.7 5.9-2.7.8-4.8 1.2-4.8 1 0-.2-1.8.2-3.9 1-3.2 1.1-3.9 1.1-3.5.1.3-.8-.4-1.5-1.8-1.8-4.4-.8-22.9.2-30.8 1.7-1.3.3-4.2.7-6.5 1-20.1 2.9-51.7 14.4-65.5 23.7-23.5 16-65.5 55.8-92.5 87.8-11.4 13.5-14.8 18.6-14.1 21.4.5 2.2 8 9.7 28.1 28.1 20.3 18.6 23.8 22.1 26 25.5 2.1 3.3 11.1 22.4 15.1 32 1 2.5 4.3 9.2 7.3 15 11.3 22.1 20.7 30.2 28.3 24.4 1.4-1 3-3 3.6-4.4 1.5-3.4 4.2-14.3 4.3-17.1.1-2.9 2.6 5.8 3.5 12.1.3 2.5.8 4.9 1.1 5.3.3.5 1.4 4.6 2.4 9.2 2.4 11.1 6.4 18.8 16.8 32 14.9 19 16.9 23.1 19.4 39 .6 3.7 4 13 6.5 17.5 4.9 8.9 11.9 16.8 20.8 23.4l5.7 4.3.2 10.5c.1 9.3.4 11 2.8 15.9 4.1 8 7.8 10.5 24 16 13.1 4.5 41 12.1 48.9 13.4 1.8.3 5.3.9 7.8 1.4 2.5.5 7.9 1.5 12 2.1 4.1.6 8.4 1.3 9.5 1.5 1.1.2 3.4.4 5.1.4l3.2.1-1.4 3.8c-1.7 4.7-1.7 7.7.1 12.6 1.3 3.8 1.3 4.1-1.5 7.3-3.7 4.1-4.4 7-3.7 13.6 1 7.9 7.7 13.8 16 13.9 5.6.1 8.9-1.4 12.8-5.7 3.1-3.3 3.6-3.6 7.6-3 2.4.3 5.3.9 6.6 1.4 1.2.5 5.4 1.2 9.3 1.6 8.2.8 8.9 1.1 9.8 4.8 1 4 6.9 10.2 11.1 11.4 3.4 1.1 5.7 1 11.3-.2 3.2-.8 9-7 10.1-10.8 1-3.8.5-10.7-.9-12.1-1.6-1.6-1.2-3.7 1.4-5.7 2.8-2.2 5.1-9.7 4.3-14.4-1.1-6.9-7.3-12.9-14.3-13.9-6.3-1-14.4 2.8-17.2 8-1 2-1.5 2-6.2 1.1-2.7-.5-5-1.4-5-1.8 0-.5.4-.9 1-.9 1.3 0 4.2-5.8 3.5-7-.4-.6 1.9-1 5.7-1.1 13.9-.2 37.9-2.6 55.3-5.5 5-.9 10.6-1.8 12.5-2.1 7.2-1 38-9.3 51.9-13.8 12.7-4.1 15-5.3 19.1-9.1 6.7-6.2 8.6-11.6 8.6-23.3l-.1-9.4 5.5-4c17.4-13 26-26.7 30.5-49.1.9-4.4 2.7-10 4-12.5 2-4 10.7-16.7 12.4-18.1.3-.3 2.7-3.2 5.2-6.5 7.5-9.7 11.3-18.5 15-34.3l3.3-14.3 1.3 5.1c2.8 11.1 6.9 14.8 13.6 12.5 2.1-.7 4.7-2.1 5.9-3.1 5.9-5.4 13.8-19.3 23.8-41.9 11.5-25.9 12.8-28.1 23.2-38 5.2-5 14.1-13.3 19.8-18.5 5.8-5.2 13.5-12.4 17.2-16.1 8.8-8.5 8.9-9.9.9-20.3-13.7-17.7-43.4-48.9-65.6-69.1-4.9-4.4-9.3-8.5-9.9-9-2.2-2.1-16.3-13.3-21.8-17.3-14.8-10.8-46-22.4-69.8-25.7-2.4-.4-4.7-.8-5-1-2.1-1.3-27.3-2.5-31-1.5-1.4.4-4.5.1-7-.6-5.3-1.5-6.1-1.7-25-4.9-8-1.3-17.2-2.7-20.5-3-3.3-.4-7-.8-8.2-1-1.3-.2-6.7-.7-12-1-5.4-.4-11.4-.9-13.3-1.1-4.2-.6-81.6-1.5-82.1-1zm22 459.3c-.4 2.2.3 4.3 1.7 5.7 1.4 1.4 1 1.5-3.8 1-6-.6-6.4-.9-7.3-4.7-.7-2.7-.7-2.7 4.4-2.7 2.8 0 5 .3 5 .7z"/></svg>